<svg width="18" height="18" viewBox="0 0 18 18" fill="none" xmlns="http://www.w3.org/2000/svg">
<path d="M9.00042 5.87499C7.27841 5.87499 5.87542 7.27799 5.87542 8.99999C5.87542 10.722 7.27841 12.125 9.00042 12.125C10.7224 12.125 12.1254 10.722 12.1254 8.99999C12.1254 7.27799 10.7224 5.87499 9.00042 5.87499ZM17.0212 8.49543L13.9386 6.95572L15.0291 3.68749C15.1755 3.24478 14.7556 2.82486 14.3162 2.9746L11.0479 4.06509L9.50497 0.979157C9.29664 0.56249 8.70419 0.56249 8.49586 0.979157L6.95615 4.06184L3.68466 2.97134C3.24195 2.82486 2.82203 3.24478 2.97177 3.68423L4.06227 6.95246L0.979584 8.49543C0.562917 8.70377 0.562917 9.29621 0.979584 9.50455L4.06227 11.0443L2.97177 14.3157C2.82529 14.7585 3.24521 15.1784 3.68466 15.0286L6.95289 13.9381L8.4926 17.0208C8.70094 17.4375 9.29339 17.4375 9.50172 17.0208L11.0414 13.9381L14.3097 15.0286C14.7524 15.1751 15.1723 14.7552 15.0226 14.3157L13.9321 11.0475L17.0147 9.5078C17.4379 9.29622 17.4379 8.70377 17.0212 8.49543ZM11.9464 11.946C10.322 13.5703 7.6788 13.5703 6.05445 11.946C4.4301 10.3216 4.4301 7.67838 6.05445 6.05403C7.6788 4.42968 10.322 4.42968 11.9464 6.05403C13.5707 7.67838 13.5707 10.3216 11.9464 11.946Z" fill="#374151"/>
</svg>
