<svg width="24px" height="24px" viewBox="0 0 24 24" fill="none" xmlns="http://www.w3.org/2000/svg">
<path fill-rule="evenodd" clip-rule="evenodd" d="M2.61769 6.67777C2.71269 6.56505 2.85259 6.5 3 6.5H6.52011C6.76502 6.5 6.97388 6.6774 7.01352 6.91907C7.1583 7.80183 7.63441 9.50624 8.75353 11.1068C8.91176 11.3332 8.85657 11.6449 8.63026 11.8031C8.40395 11.9614 8.09222 11.9062 7.93398 11.6799C6.86528 10.1514 6.3333 8.54415 6.10697 7.5H3.6172C4.04612 9.23799 5.22252 12.19 6.9968 14.4198C7.96937 15.6421 9.02569 16.4263 9.93935 16.8978C10.8678 17.377 11.6144 17.5165 11.9624 17.4985C11.9751 17.4979 11.9878 17.4977 12.0006 17.498C12.1625 17.502 12.3593 17.4576 12.5055 17.3385C12.6326 17.235 12.7869 17.0228 12.7869 16.546V15.0252C12.7869 14.7323 12.9017 14.4364 13.1468 14.2466C13.4056 14.0461 13.7439 14.0174 14.0465 14.1576C14.3678 14.3065 14.7351 14.4968 14.9594 14.6176C14.9721 14.6245 14.9845 14.6318 14.9965 14.6397C16.1336 15.3856 17.2291 16.5836 17.9236 17.4732C17.933 17.4852 17.9421 17.4915 17.9481 17.4946C17.954 17.4975 17.9575 17.4978 17.9592 17.4978H20.4749C20.4814 17.4978 20.4844 17.4969 20.485 17.4968C20.4857 17.4965 20.486 17.4964 20.4865 17.4961C20.4877 17.4952 20.4921 17.4916 20.4958 17.4834C20.4995 17.4752 20.5006 17.4667 20.4997 17.4596C20.4991 17.4545 20.4971 17.4444 20.4846 17.4293C19.8601 16.6726 19.0297 15.744 18.3062 14.9348C18.0494 14.6476 17.8061 14.3755 17.5902 14.1315C17.0909 13.5671 17.0547 12.7389 17.4392 12.1192C18.2818 10.761 19.3907 8.81166 19.7328 7.5H17.6905C17.6892 7.5 17.6828 7.50001 17.6709 7.50839C17.6581 7.51739 17.6413 7.53502 17.6288 7.56334C16.9163 9.17115 15.4145 11.1556 14.3216 12.1526C14.0159 12.4314 13.6049 12.4759 13.272 12.2833C12.9607 12.1032 12.7869 11.7589 12.7869 11.3934V7.5H10.1158C10.1517 7.56664 10.1869 7.63499 10.2207 7.70462C10.4234 8.12143 10.6086 8.64048 10.6086 9.14149C10.6086 9.35565 10.6103 9.67975 10.6124 10.0582C10.6177 11.0464 10.625 12.4053 10.6084 13.1453C10.6023 13.4214 10.3734 13.6402 10.0974 13.634C9.82129 13.6278 9.6025 13.399 9.60869 13.1229C9.62495 12.3979 9.61778 11.0723 9.61246 10.0869C9.61037 9.70057 9.60857 9.36652 9.60857 9.14149C9.60857 8.86213 9.49751 8.50402 9.32144 8.14197C9.14872 7.78681 8.94055 7.48285 8.80547 7.32455C8.67885 7.17617 8.65009 6.9677 8.7318 6.79057C8.8135 6.61344 8.99076 6.5 9.18582 6.5H13.2869C13.5631 6.5 13.7869 6.72386 13.7869 7V11.2831C14.7736 10.3329 16.092 8.56303 16.7145 7.1582C16.8777 6.78994 17.2401 6.5 17.6905 6.5H19.7391C20.3596 6.5 20.8758 7.07253 20.7044 7.73709C20.3221 9.21965 19.1227 11.3024 18.2889 12.6463C18.1216 12.916 18.1518 13.2571 18.3392 13.4689C18.5474 13.7042 18.7851 13.9701 19.0381 14.253C19.7649 15.0658 20.6175 16.0193 21.2559 16.7928C21.8037 17.4566 21.3727 18.4978 20.4749 18.4978H17.9592C17.6271 18.4978 17.3292 18.3367 17.1354 18.0886C16.4725 17.2394 15.464 16.1475 14.4659 15.4877C14.2896 15.393 14.0323 15.2596 13.7869 15.1411V16.546C13.7869 17.2685 13.5368 17.7883 13.137 18.1139C12.7638 18.4178 12.3215 18.5025 11.9952 18.4981C11.4082 18.5229 10.4903 18.3075 9.48073 17.7864C8.44555 17.2522 7.2776 16.3788 6.21429 15.0425C4.10659 12.3936 2.8049 8.81716 2.50722 7.08467C2.48226 6.93938 2.52268 6.79049 2.61769 6.67777ZM13.7894 15.0013C13.7895 15.0014 13.7893 15.002 13.7888 15.0032ZM13.6261 15.0649C13.6261 15.0649 13.626 15.0649 13.626 15.0649ZM13.7943 11.4357C13.7942 11.4357 13.7938 11.4351 13.7931 11.4338C13.794 11.435 13.7944 11.4356 13.7943 11.4357Z" fill="black"/>
</svg>
